<?xml version="1.0" standalone="no"?>
<!DOCTYPE svg PUBLIC "-//W3C//DTD SVG 20010904//EN"
 "http://www.w3.org/TR/2001/REC-SVG-20010904/DTD/svg10.dtd">
<svg version="1.0" xmlns="http://www.w3.org/2000/svg"
 width="1328.000000pt" height="440.000000pt" viewBox="0 0 1328.000000 440.000000"
 preserveAspectRatio="xMidYMid meet">

<g transform="translate(0.000000,440.000000) scale(0.100000,-0.100000)"
fill="#000000" stroke="none">
<path d="M6283 4008 c-6 -7 -13 -28 -16 -45 l-6 -33 209 0 210 0 -6 28 c-16
64 -8 62 -203 62 -131 0 -181 -3 -188 -12z"/>
<path d="M330 3850 l0 -70 2870 0 2870 0 0 70 0 70 -2870 0 -2870 0 0 -70z"/>
<path d="M6854 3906 c-3 -7 -4 -38 -2 -67 l3 -54 3078 -3 3077 -2 0 70 0 70
-3075 0 c-2594 0 -3076 -2 -3081 -14z"/>
<path d="M6264 3849 c-7 -12 -12 -52 -49 -414 -24 -231 -27 -251 -47 -265
-141 -96 -229 -240 -253 -413 -5 -38 -10 -48 -23 -45 -15 3 -17 20 -20 128 -2
103 -5 127 -19 138 -24 18 -57 15 -77 -7 -16 -18 -18 -43 -13 -288 3 -200 8
-283 20 -329 24 -90 24 -89 5 -86 -13 2 -18 -8 -24 -44 -11 -73 3 -271 24
-351 17 -68 17 -73 1 -73 -23 0 -29 -28 -29 -141 0 -391 182 -670 532 -814 45
-19 89 -35 96 -35 10 0 12 -26 10 -113 l-3 -112 -3032 -3 -3033 -2 0 -65 0
-65 3100 0 3100 0 2 177 3 177 70 26 c213 80 384 217 467 375 72 138 117 366
103 522 -6 62 -10 73 -26 73 -23 0 -23 -4 -4 67 23 87 36 238 29 326 -6 67 -9
77 -26 77 -14 0 -18 5 -13 19 27 87 37 176 42 403 5 220 4 250 -11 273 -20 30
-65 34 -89 7 -14 -15 -17 -41 -17 -140 0 -115 -1 -122 -20 -122 -16 0 -20 7
-20 33 0 48 -37 174 -68 231 -34 63 -120 156 -166 181 -42 23 -39 10 -66 280
-28 276 -40 387 -46 408 -5 15 -23 17 -204 17 -134 0 -201 -4 -206 -11z m258
-1026 c63 -120 88 -207 88 -303 0 -55 -4 -81 -14 -89 -23 -19 -93 -132 -107
-173 -7 -21 -16 -38 -19 -38 -3 0 -19 28 -35 62 -16 34 -49 88 -72 120 -38 51
-43 64 -43 111 0 68 31 189 66 259 40 80 75 138 83 138 4 0 28 -39 53 -87z
m-517 -284 c252 -126 374 -308 400 -594 6 -65 5 -69 -10 -50 -121 154 -233
242 -387 305 -48 19 -60 29 -72 60 -27 67 -48 164 -55 248 l-7 83 26 -6 c14
-4 61 -24 105 -46z m1051 -24 c-7 -75 -36 -205 -58 -258 -8 -22 -29 -37 -84
-62 -142 -65 -269 -162 -358 -275 l-27 -35 5 80 c13 202 114 389 270 499 79
56 211 122 250 125 5 1 6 -32 2 -74z m-1069 -435 c253 -118 377 -287 413 -563
12 -88 8 -118 -11 -84 -29 50 -118 143 -182 188 -40 28 -114 71 -166 96 -75
37 -96 52 -106 77 -24 57 -46 157 -53 242 -6 69 -5 84 6 84 8 0 52 -18 99 -40z
m1073 6 c0 -56 -28 -199 -52 -266 -22 -60 -25 -63 -81 -86 -102 -43 -199 -107
-277 -184 -42 -41 -86 -88 -98 -105 l-21 -30 -1 48 c0 63 24 178 54 254 63
162 198 293 384 373 86 38 92 37 92 -4z m-1088 -465 c148 -63 282 -179 346
-299 41 -78 79 -210 88 -312 l7 -83 -29 7 c-43 11 -182 83 -236 122 -158 116
-249 291 -265 507 -7 102 -10 100 89 58z m1088 -3 c-1 -62 -20 -166 -45 -246
-36 -114 -108 -218 -202 -293 -67 -53 -198 -125 -262 -144 l-24 -7 6 88 c20
276 150 467 401 590 110 54 126 55 126 12z"/>
<path d="M337 3253 c-4 -3 -7 -485 -7 -1070 l0 -1063 453 0 452 1 127 112 128
112 0 387 0 387 -47 32 c-27 18 -65 46 -86 62 l-37 29 57 41 c32 22 70 51 86
65 l27 26 0 326 0 327 -134 117 -135 116 -439 0 c-241 0 -442 -3 -445 -7z
m743 -603 l0 -230 -170 0 -170 0 0 230 0 230 170 0 170 0 0 -230z m-2 -882
l-3 -273 -165 0 -165 0 -3 273 -2 272 170 0 170 0 -2 -272z"/>
<path d="M1777 3253 c-4 -3 -7 -485 -7 -1070 l0 -1063 445 0 445 0 -2 186 -3
185 -237 -1 -238 -1 0 266 0 265 155 0 155 0 0 190 0 190 -155 0 -155 0 0 240
0 240 235 0 235 0 0 190 0 190 -433 0 c-239 0 -437 -3 -440 -7z"/>
<path d="M2947 3253 c-4 -3 -7 -485 -7 -1070 l0 -1063 445 0 445 0 -2 186 -3
186 -235 1 -235 2 -3 262 -2 262 157 3 158 3 0 185 0 185 -157 3 -158 3 0 239
0 240 240 0 240 0 -2 188 -3 187 -436 3 c-239 1 -439 -1 -442 -5z"/>
<path d="M4120 2190 l0 -1070 200 0 c184 0 200 1 200 18 1 9 1 180 0 379 0
199 3 369 6 377 5 13 23 16 90 16 46 0 84 -4 84 -8 0 -7 149 -692 165 -759 5
-23 6 -23 221 -23 l216 0 -7 32 c-4 18 -52 200 -106 403 -54 204 -99 375 -99
381 0 6 41 51 90 100 l90 88 -1 455 0 456 -132 112 -132 113 -442 0 -443 0 0
-1070z m740 395 l0 -295 -167 2 -168 3 -3 270 c-2 149 0 280 3 293 5 22 8 22
170 22 l165 0 0 -295z"/>
<path d="M8103 3250 l-143 -5 -125 -110 -125 -110 0 -835 c0 -459 4 -840 8
-845 4 -6 41 -40 82 -75 41 -36 77 -67 80 -70 3 -3 26 -22 51 -43 l45 -37 327
0 327 -1 120 113 120 113 0 278 0 277 -205 0 -205 0 0 -204 0 -204 -167 1
-168 2 0 690 0 690 168 3 167 2 0 -155 0 -155 205 0 205 0 0 229 0 229 -126
116 -125 116 -187 -2 c-103 -1 -251 -5 -329 -8z"/>
<path d="M9157 3253 c-4 -3 -7 -485 -7 -1070 l0 -1063 490 0 490 0 -2 185 -3
185 -280 3 -280 2 -1 23 c-1 12 -2 409 -3 882 l-1 860 -198 0 c-109 0 -202 -3
-205 -7z"/>
<path d="M10417 3253 c-4 -3 -7 -432 -7 -953 0 -742 3 -950 13 -962 6 -9 65
-61 129 -117 l118 -101 322 0 323 0 128 112 127 111 -2 956 -3 956 -200 0
-200 0 -5 -880 -5 -880 -165 0 -165 0 -3 883 -2 882 -198 0 c-109 0 -202 -3
-205 -7z"/>
<path d="M11857 3253 c-4 -3 -7 -485 -7 -1070 l0 -1063 454 0 455 0 125 111
126 111 0 389 0 388 -80 58 c-44 32 -80 60 -80 64 0 3 36 31 80 63 l80 57 0
334 0 333 -132 116 -133 116 -441 0 c-242 0 -444 -3 -447 -7z m743 -603 l0
-230 -170 0 -170 0 0 230 0 230 170 0 170 0 0 -230z m0 -886 l0 -275 -167 3
-168 3 -3 273 -2 272 170 0 170 0 0 -276z"/>
<path d="M6700 515 l0 -65 3155 0 3155 0 0 65 0 65 -3155 0 -3155 0 0 -65z"/>
</g>
</svg>
